<svg xmlns="http://www.w3.org/2000/svg" viewBox="0 0 100 100" width="100" height="100">
  <defs>
    <linearGradient id="waterGradient" x1="0%" y1="0%" x2="100%" y2="100%">
      <stop offset="0%" style="stop-color:#3B82F6;stop-opacity:1" />
      <stop offset="50%" style="stop-color:#1D4ED8;stop-opacity:1" />
      <stop offset="100%" style="stop-color:#1E40AF;stop-opacity:1" />
    </linearGradient>
    <linearGradient id="dropGradient" x1="0%" y1="0%" x2="100%" y2="100%">
      <stop offset="0%" style="stop-color:#60A5FA;stop-opacity:1" />
      <stop offset="100%" style="stop-color:#2563EB;stop-opacity:1" />
    </linearGradient>
  </defs>
  
  <!-- Main flowing water waves -->
  <path d="M10 60 Q25 45 40 60 T70 60 T100 60 L100 85 Q85 70 70 85 T40 85 T10 85 Z" 
        fill="url(#waterGradient)" opacity="0.8"/>
  
  <path d="M10 70 Q25 55 40 70 T70 70 T100 70 L100 90 Q85 75 70 90 T40 90 T10 90 Z" 
        fill="url(#waterGradient)" opacity="0.6"/>
  
  <!-- Water drop -->
  <path d="M50 15 C45 25, 35 35, 35 45 C35 55, 42 60, 50 60 C58 60, 65 55, 65 45 C65 35, 55 25, 50 15 Z" 
        fill="url(#dropGradient)"/>
  
  <!-- Highlight on drop -->
  <ellipse cx="47" cy="40" rx="3" ry="6" fill="#BFDBFE" opacity="0.7"/>
  
  <!-- Small bubbles -->
  <circle cx="25" cy="45" r="2" fill="#60A5FA" opacity="0.6"/>
  <circle cx="75" cy="50" r="1.5" fill="#60A5FA" opacity="0.5"/>
  <circle cx="20" cy="55" r="1" fill="#93C5FD" opacity="0.7"/>
  <circle cx="80" cy="40" r="1" fill="#93C5FD" opacity="0.6"/>
</svg>
